<?xml version="1.0" encoding="UTF-8" standalone="no"?>
<svg
   width="360"
   height="96"
   viewBox="0 0 375 100"
   version="1.1"
   id="svg107"
   sodipodi:docname="kitweb.svg"
   inkscape:version="1.2.2 (b0a8486, 2022-12-01)"
   xmlns:inkscape="http://www.inkscape.org/namespaces/inkscape"
   xmlns:sodipodi="http://sodipodi.sourceforge.net/DTD/sodipodi-0.dtd"
   xmlns="http://www.w3.org/2000/svg"
   xmlns:svg="http://www.w3.org/2000/svg">
  <defs
     id="defs111" />
  <sodipodi:namedview
     id="namedview109"
     pagecolor="#ffffff"
     bordercolor="#000000"
     borderopacity="0.25"
     inkscape:showpageshadow="2"
     inkscape:pageopacity="0.0"
     inkscape:pagecheckerboard="0"
     inkscape:deskcolor="#d1d1d1"
     showgrid="false"
     inkscape:zoom="3.3944444"
     inkscape:cx="180"
     inkscape:cy="48.166939"
     inkscape:window-width="1360"
     inkscape:window-height="715"
     inkscape:window-x="1358"
     inkscape:window-y="25"
     inkscape:window-maximized="0"
     inkscape:current-layer="svg107" />
  <g
     transform="matrix(1.2820512820512822,0,0,1.2820512820512822,312.1794871794872,-459.61538461538464)"
     fill="#0081c6"
     id="g102">
    <path
       d="M-167.5,390.5c-1.1,0-2-0.9-2-2c0-1.1,0.9-2,2-2c1.1,0,2,0.9,2,2C-165.5,389.6-166.4,390.5-167.5,390.5z   M-177.5,428.5c-2.2,0-4-1.8-4-4s1.8-4,4-4c2.2,0,4,1.8,4,4S-175.3,428.5-177.5,428.5z M-177.5,410.5c-2.2,0-4-1.8-4-4s1.8-4,4-4  c2.2,0,4,1.8,4,4S-175.3,410.5-177.5,410.5z M-177.5,392.5c-2.2,0-4-1.8-4-4c0-2.2,1.8-4,4-4c2.2,0,4,1.8,4,4  C-173.5,390.7-175.3,392.5-177.5,392.5z M-177.5,374.5c-2.2,0-4-1.8-4-4c0-2.2,1.8-4,4-4c2.2,0,4,1.8,4,4  C-173.5,372.7-175.3,374.5-177.5,374.5z M-194.5,414.5c-3.9,0-7-3.1-7-7c0-3.9,3.1-7,7-7c3.9,0,7,3.1,7,7  C-187.5,411.4-190.6,414.5-194.5,414.5z M-194.5,394.5c-3.9,0-7-3.1-7-7c0-3.9,3.1-7,7-7c3.9,0,7,3.1,7,7  C-187.5,391.4-190.6,394.5-194.5,394.5z M-195.5,374.5c-2.2,0-4-1.8-4-4c0-2.2,1.8-4,4-4c2.2,0,4,1.8,4,4  C-191.5,372.7-193.3,374.5-195.5,374.5z M-195.5,362.5c-1.1,0-2-0.9-2-2c0-1.1,0.9-2,2-2c1.1,0,2,0.9,2,2  C-193.5,361.6-194.4,362.5-195.5,362.5z M-214.5,414.5c-3.9,0-7-3.1-7-7c0-3.9,3.1-7,7-7s7,3.1,7,7  C-207.5,411.4-210.6,414.5-214.5,414.5z M-214.5,394.5c-3.9,0-7-3.1-7-7c0-3.9,3.1-7,7-7s7,3.1,7,7  C-207.5,391.4-210.6,394.5-214.5,394.5z M-213.5,374.5c-2.2,0-4-1.8-4-4c0-2.2,1.8-4,4-4c2.2,0,4,1.8,4,4  C-209.5,372.7-211.3,374.5-213.5,374.5z M-213.5,362.5c-1.1,0-2-0.9-2-2c0-1.1,0.9-2,2-2c1.1,0,2,0.9,2,2  C-211.5,361.6-212.4,362.5-213.5,362.5z M-231.5,374.5c-2.2,0-4-1.8-4-4c0-2.2,1.8-4,4-4c2.2,0,4,1.8,4,4  C-227.5,372.7-229.3,374.5-231.5,374.5z M-231.5,384.5c2.2,0,4,1.8,4,4c0,2.2-1.8,4-4,4c-2.2,0-4-1.8-4-4  C-235.5,386.3-233.7,384.5-231.5,384.5z M-241.5,408.5c-1.1,0-2-0.9-2-2c0-1.1,0.9-2,2-2c1.1,0,2,0.9,2,2  C-239.5,407.6-240.4,408.5-241.5,408.5z M-241.5,390.5c-1.1,0-2-0.9-2-2c0-1.1,0.9-2,2-2c1.1,0,2,0.9,2,2  C-239.5,389.6-240.4,390.5-241.5,390.5z M-231.5,402.5c2.2,0,4,1.8,4,4s-1.8,4-4,4c-2.2,0-4-1.8-4-4S-233.7,402.5-231.5,402.5z   M-231.5,420.5c2.2,0,4,1.8,4,4s-1.8,4-4,4c-2.2,0-4-1.8-4-4S-233.7,420.5-231.5,420.5z M-213.5,420.5c2.2,0,4,1.8,4,4  c0,2.2-1.8,4-4,4c-2.2,0-4-1.8-4-4C-217.5,422.3-215.7,420.5-213.5,420.5z M-213.5,432.5c1.1,0,2,0.9,2,2c0,1.1-0.9,2-2,2  c-1.1,0-2-0.9-2-2C-215.5,433.4-214.6,432.5-213.5,432.5z M-195.5,420.5c2.2,0,4,1.8,4,4c0,2.2-1.8,4-4,4c-2.2,0-4-1.8-4-4  C-199.5,422.3-197.7,420.5-195.5,420.5z M-195.5,432.5c1.1,0,2,0.9,2,2c0,1.1-0.9,2-2,2c-1.1,0-2-0.9-2-2  C-197.5,433.4-196.6,432.5-195.5,432.5z M-167.5,404.5c1.1,0,2,0.9,2,2c0,1.1-0.9,2-2,2c-1.1,0-2-0.9-2-2  C-169.5,405.4-168.6,404.5-167.5,404.5z"
       style="fill-rule: evenodd; clip-rule: evenodd;"
       id="path100" />
  </g>
  <g
     id="SvgjsG1162"
     featurekey="Q4qmbg-0"
     transform="matrix(4.240267687602212,0,0,4.240267687602212,120.67492703952243,-4.236664987019616)"
     fill="#111111">
    <path
       d="M7.54 20 l-3.2 -4.06 c-0.08 0.08 -0.22 0.18 -0.34 0.28 l0 3.78 l-2.98 0 l0 -14.52 l2.98 0 l0 7.12 l2.84 -2.48 l4.42 0 l-4.78 4 c1.46 1.8 3.38 4.14 4.78 5.88 l-3.72 0 z M15.027708333333331 10.12 l0 9.88 l-2.96 0 l0 -9.88 l2.96 0 z M15.107708333333331 7.279999999999999 c0 0.84 -0.68 1.5 -1.58 1.5 c-0.86 0 -1.56 -0.66 -1.56 -1.5 c0 -0.82 0.7 -1.46 1.56 -1.46 c0.9 0 1.58 0.64 1.58 1.46 z M20.175416666666663 15.8 c0 0.72 -0.02 1.92 1.08 1.92 c0.54 0 0.88 -0.22 1.26 -0.5 l0 2.44 c-0.46 0.26 -1.02 0.5 -1.62 0.5 c-2.54 0 -3.68 -1.08 -3.68 -4.36 l0 -3.24 l-1.1 0 l0 -2.44 l1.1 0 l0 -2.84 l2.96 0 l0 2.84 l2.34 0 l0 2.44 l-2.34 0 l0 3.24 z M35.203125 10.12 l3.02 0 l-3.76 9.88 l-1.94 0 l-1.84 -4.78 c-0.62 1.66 -1.22 3.22 -1.8 4.78 l-1.96 0 l-3.78 -9.88 l3.04 0 l1.72 5.44 l1.7 -5.44 l2.18 0 l1.7 5.46 z M48.750833333333325 15.08 l0 0.66 l-7.04 0 c0 1.16 1.18 1.98 2.16 1.98 c0.96 0 1.84 -0.38 2.3 -1.22 l1.98 1.82 c-0.8 1.08 -2.02 1.84 -4.28 1.84 c-3.24 0 -5.22 -2.16 -5.22 -5.08 s1.92 -5.1 5.04 -5.1 s5.06 2.14 5.06 5.1 z M41.77083333333333 13.86 l3.88 0 c-0.16 -0.94 -0.84 -1.44 -1.96 -1.44 c-1.08 0 -1.74 0.58 -1.92 1.44 z M55.15854166666666 9.98 c2.9 0 4.82 2.18 4.82 5.1 s-2.12 5.08 -5.02 5.08 c-0.64 0 -1.72 -0.36 -2.04 -0.82 l0 0.66 l-2.96 0 l0 -14.52 l2.96 0 l0 5.34 c0.34 -0.5 1.62 -0.84 2.24 -0.84 z M54.75854166666666 17.92 c1.24 0 2.26 -1.28 2.26 -2.84 c0 -1.58 -1.02 -2.86 -2.26 -2.86 c-1.36 0 -2.24 1.54 -2.24 2.86 s0.9 2.84 2.24 2.84 z"
       id="path104" />
  </g>
</svg>
